<svg version="1.1" id="Layer_1" xmlns="http://www.w3.org/2000/svg" xmlns:xlink="http://www.w3.org/1999/xlink" x="0px" y="0px"
	 width="100%" viewBox="0 0 600 250" enable-background="new 0 0 600 250" xml:space="preserve">
<path fill="#D9D9FF" opacity="1.000000" stroke="none" 
	d="
M368.000000,251.000000 
	C246.833344,251.000000 126.166672,250.979782 5.500133,251.094391 
	C1.750632,251.097946 0.898814,250.250061 0.904662,246.499893 
	C1.030178,166.000107 1.027866,85.500015 0.903952,5.000221 
	C0.898682,1.576018 1.576215,0.903695 4.999977,0.905533 
	C202.333237,1.011456 399.666565,1.011452 596.999817,0.905561 
	C600.423157,0.903724 601.101257,1.575373 601.096008,5.000002 
	C600.972107,85.666466 600.972229,166.333221 601.096008,246.999680 
	C601.101318,250.423660 600.424866,251.101883 597.000000,251.096237 
	C520.833496,250.970566 444.666718,251.000000 368.000000,251.000000 
z"/>
<path fill="#0758FF" opacity="1.000000" stroke="none" 
	d="
M46.399651,179.693237 
	C43.748592,178.215927 44.282322,176.289902 44.825695,174.274109 
	C53.757210,141.140610 59.218761,107.234070 67.131088,73.871681 
	C67.776314,71.151085 68.834549,69.556709 71.696785,68.856010 
	C76.055267,67.789024 80.386124,66.484222 84.572151,64.873528 
	C88.605492,63.321579 90.491440,64.202782 91.754349,68.537613 
	C95.898575,82.762367 100.442818,96.870667 104.848335,111.019058 
	C105.238243,112.271248 105.737175,113.489487 106.464645,115.491974 
	C112.774124,102.240700 118.999168,89.747383 124.648842,76.999077 
	C126.741005,72.278175 129.404099,69.588036 134.591187,68.676552 
	C140.142487,67.701057 145.538589,65.830437 150.991501,64.311249 
	C154.550705,63.319656 156.720779,64.144783 157.299820,68.228867 
	C162.256393,103.188866 167.485138,138.111160 171.623932,173.182861 
	C171.960358,176.033615 170.981491,177.959839 168.174515,179.017471 
	C161.611862,181.490173 154.825439,183.168991 148.056519,184.923721 
	C144.742737,185.782745 143.575821,183.740021 142.765640,181.123856 
	C141.025803,175.505661 140.671219,169.673294 140.064926,163.879532 
	C138.513809,149.056702 136.990158,134.230408 134.592865,119.291801 
	C132.405350,120.329178 132.056839,122.280273 131.230667,123.780357 
	C123.116440,138.513489 115.091232,153.295654 107.037331,168.062027 
	C106.479324,169.085098 105.958031,170.136475 105.308136,171.099396 
	C103.961815,173.094177 102.303947,174.903198 99.692719,174.671967 
	C96.835869,174.418976 96.251808,171.933411 95.544548,169.670654 
	C91.521072,156.798416 87.513344,143.922989 84.275780,130.821487 
	C83.986336,129.650208 84.342606,128.054459 82.500099,127.360260 
	C78.342865,145.025436 74.021217,162.576477 70.185646,180.233093 
	C69.169258,184.911911 67.047607,185.972046 62.984207,184.780182 
	C57.556225,183.188080 52.154003,181.508148 46.399651,179.693237 
z"/>
<path fill="#0758FF" opacity="1.000000" stroke="none" 
	d="
M285.015747,176.681198 
	C281.050751,178.559464 277.403625,180.603149 273.533173,182.049255 
	C258.334381,187.728012 243.256226,181.571121 236.220779,167.001465 
	C226.959808,147.822968 232.146667,117.255569 247.229187,102.126213 
	C259.522583,89.794670 275.294617,88.698097 289.657440,99.195755 
	C291.407227,100.474655 293.151611,103.029068 294.495636,98.806099 
	C294.631622,98.378799 295.586548,98.096489 296.208557,97.957031 
	C304.487946,96.100716 312.745483,94.124634 321.074860,92.523674 
	C324.937286,91.781296 324.900116,94.823303 324.623077,97.408546 
	C322.974091,112.796028 321.266479,128.177261 319.559937,143.558533 
	C318.440613,153.647415 317.468994,163.756866 316.118164,173.815048 
	C312.669556,199.493423 288.491730,221.244888 262.593445,222.103287 
	C254.741959,222.363525 246.955368,222.090195 239.524078,218.987366 
	C235.999298,217.515656 234.116928,215.769424 235.712814,211.472763 
	C237.326080,207.129288 238.287064,202.520081 239.256638,197.968262 
	C240.059967,194.196915 241.006989,193.282288 245.133560,195.201981 
	C261.590546,202.857788 279.796356,198.681503 285.517578,177.849777 
	C285.381531,177.197723 285.275085,176.895889 285.015747,176.681198 
z"/>
<path fill="#0758FF" opacity="1.000000" stroke="none" 
	d="
M348.417267,97.406784 
	C354.846588,96.005226 360.893768,94.823059 366.866974,93.342331 
	C369.867706,92.598457 371.126221,92.809273 370.701813,96.456726 
	C368.796753,112.829964 367.043152,129.221954 365.399872,145.623688 
	C365.020264,149.412399 364.961823,153.299759 365.348206,157.081177 
	C365.786316,161.369064 368.496185,163.393158 372.964813,163.126770 
	C381.623383,162.610626 388.946045,156.077972 389.721069,147.459976 
	C390.973907,133.528641 392.118958,119.580902 392.894226,105.617035 
	C393.156403,100.894699 394.339417,98.476097 399.491791,97.730652 
	C407.046387,96.637665 414.490875,94.688370 421.913849,92.830460 
	C424.640289,92.148064 425.785645,91.907089 425.423737,95.483246 
	C422.908752,120.337349 420.544800,145.207169 418.262634,170.083878 
	C417.981628,173.146927 416.993134,174.918411 413.860260,175.729950 
	C405.488678,177.898575 397.014709,179.788635 389.079407,183.372299 
	C386.719360,184.438110 385.998993,183.620468 386.322571,181.276993 
	C386.637848,178.993469 386.937805,176.707825 387.355347,173.597336 
	C383.417389,175.698380 380.158386,177.488632 376.853485,179.189697 
	C370.065094,182.683685 362.969788,184.672897 355.211578,183.882202 
	C342.715698,182.608688 335.671356,175.395233 334.912262,162.724472 
	C334.170410,150.342514 336.596954,138.158112 337.374268,125.869400 
	C337.763062,119.723038 338.534393,113.601845 339.045502,107.462013 
	C339.751465,98.982246 339.716187,98.979309 348.417267,97.406784 
z"/>
<path fill="#0758FF" opacity="1.000000" stroke="none" 
	d="
M487.736328,162.208038 
	C495.106018,161.473145 501.394226,158.833496 507.526428,155.816971 
	C510.457092,154.375336 511.746490,154.627792 511.579468,158.286591 
	C511.367462,162.931274 511.330627,167.599396 511.551697,172.241531 
	C511.654297,174.396317 510.551636,175.354126 509.025513,176.041153 
	C495.621582,182.075256 481.864594,186.350723 466.991669,182.616714 
	C437.794281,175.286438 425.149872,143.940918 440.532410,116.520309 
	C450.361694,98.998848 465.969330,90.934898 485.793457,92.262871 
	C499.387543,93.173508 508.948883,100.853218 514.085571,113.564919 
	C517.777588,122.701469 516.002258,130.936707 508.964355,137.815811 
	C498.487701,148.056137 485.513916,151.103531 471.332581,150.424011 
	C469.367157,150.329819 467.412048,149.616028 465.423798,150.269135 
	C466.967773,159.279770 473.845062,163.036880 487.736328,162.208038 
z"/>
<path fill="#0758FF" opacity="1.000000" stroke="none" 
	d="
M562.181152,115.291168 
	C560.456482,134.476440 558.734375,153.199783 557.130188,171.933228 
	C556.962830,173.887375 556.286499,174.928101 554.473816,175.576584 
	C546.957886,178.265442 539.511108,181.151520 531.966003,183.753876 
	C526.682190,185.576324 525.373474,184.423294 525.749756,178.924652 
	C528.226440,142.732086 532.281982,106.658440 533.935364,70.405716 
	C534.090576,67.002213 535.302124,65.463547 538.810791,64.852303 
	C546.995422,63.426495 555.174561,61.810116 563.194702,59.667496 
	C567.229919,58.589474 567.309814,60.096046 567.020264,63.140766 
	C565.381653,80.367638 563.811218,97.600998 562.181152,115.291168 
z"/>
<path fill="#0858FF" opacity="1.000000" stroke="none" 
	d="
M188.645294,128.532898 
	C189.397079,119.945778 190.285477,111.824020 190.688141,103.678253 
	C190.875259,99.892929 192.480072,98.558159 196.007355,97.951225 
	C203.876099,96.597244 211.769135,95.208298 219.367203,92.671722 
	C222.178772,91.733093 222.944046,92.353951 222.669159,95.258636 
	C220.315964,120.125122 218.026245,144.997650 215.760132,169.872253 
	C215.522003,172.485992 214.455368,174.007706 211.807785,174.865875 
	C203.893845,177.431076 196.009689,180.114120 188.232010,183.062653 
	C184.429962,184.503998 183.651947,183.450531 184.005280,179.738968 
	C185.614975,162.830109 187.071503,145.906647 188.645294,128.532898 
z"/>
<path fill="#0859FF" opacity="1.000000" stroke="none" 
	d="
M209.378815,81.263000 
	C204.578873,82.271133 200.183075,83.143028 195.810211,84.117798 
	C193.642975,84.600899 192.725342,84.014839 192.925323,81.662819 
	C193.502045,74.880539 193.949097,68.087334 194.489471,61.301788 
	C194.632721,59.502857 195.402344,58.281162 197.418686,57.850117 
	C206.178040,55.977539 215.068085,54.663990 223.614716,51.862492 
	C225.711334,51.175247 226.362244,52.155560 226.209457,54.077763 
	C225.643814,61.194328 225.087723,68.311707 224.496841,75.426186 
	C224.322739,77.522369 223.175430,78.621613 221.032578,78.975708 
	C217.267838,79.597824 213.537292,80.426834 209.378815,81.263000 
z"/>
<path fill="#D7D7FF" opacity="1.000000" stroke="none" 
	d="
M290.062073,128.090759 
	C289.482513,135.504303 289.004639,142.466949 288.359314,149.414032 
	C287.774567,155.709015 281.929779,161.921951 275.747375,163.049255 
	C269.634796,164.163834 264.974091,162.067978 263.101440,156.084442 
	C258.769806,142.243973 260.998108,129.137848 269.286102,117.253967 
	C272.002167,113.359474 275.969177,111.958443 280.714508,113.905632 
	C286.679230,116.353180 290.349182,121.653847 290.062073,128.090759 
z"/>
<path fill="#D9D9FF" opacity="1.000000" stroke="none" 
	d="
M284.982666,176.967941 
	C285.358734,176.056198 285.752960,175.907135 285.665588,177.271362 
	C285.421814,177.366882 285.293304,177.256195 284.982666,176.967941 
z"/>
<path fill="#D5D6FF" opacity="1.000000" stroke="none" 
	d="
M489.969177,123.816116 
	C482.957581,128.846909 475.010071,130.118622 467.224579,131.841797 
	C465.782257,132.161011 464.367249,132.132172 464.993195,129.972000 
	C466.945984,123.232895 469.898315,117.150467 476.699615,114.023987 
	C480.795593,112.141136 484.878052,112.763168 488.638550,115.073326 
	C492.178406,117.247917 493.664978,119.983688 489.969177,123.816116 
z"/>
</svg>